<?xml version="1.0" encoding="utf-8"?>
<!-- Generator: Adobe Illustrator 23.0.1, SVG Export Plug-In . SVG Version: 6.00 Build 0)  -->
<svg version="1.1" id="Capa_1" xmlns="http://www.w3.org/2000/svg" xmlns:xlink="http://www.w3.org/1999/xlink" x="0px" y="0px"
	 viewBox="0 0 612 612" style="enable-background:new 0 0 612 612;" xml:space="preserve">
<style type="text/css">
	.st0{display:none;}
	.st1{display:inline;}
	.st2{fill:#FFFFFF;}
	.st3{display:none;fill:#FFFFFF;}
	.st4{fill:#7C98EB;}
	.st5{display:none;fill:#7C98EB;}
	.st6{display:none;fill:#FFC715;}
	.st7{fill:#495057;}
</style>
<g class="st0">
	<g id="blanco" class="st1">
		<g id="blanco_1_">
			<g>
				<g>
					<rect x="189.4" y="134.6" class="st2" width="49.2" height="42.6"/>
					<rect x="281.2" y="134.6" class="st2" width="49.6" height="42.6"/>
					<rect x="189.4" y="226.9" class="st2" width="49.2" height="42.6"/>
					<path class="st2" d="M373.4,318.7v88.8c0,11.9-9.6,21.5-21.5,21.5c-10.4,0-19.1-7.4-21.1-17.2v-93.1h-49.6v93.1
						c-2,9.8-10.7,17.2-21.1,17.2c-11.9,0-21.5-9.6-21.5-21.5v-88.8h-49.2v94.5c0,38.1,30.9,69,69,69h3.5c16.8,0,32.2-6,44.2-16
						c12,10,27.4,16,44.2,16h3.5c38.1,0,69-30.9,69-69v-94.5H373.4z"/>
					<rect x="281.2" y="226.9" class="st2" width="49.6" height="42.6"/>
					<rect x="373.4" y="134.6" class="st2" width="49.2" height="42.6"/>
					<rect x="373.4" y="226.9" class="st2" width="49.2" height="42.6"/>
				</g>
				<path class="st3" d="M306,0C136.9,0-0.1,137-0.1,306.1c0,169,137,306.1,306.1,306.1s306-137.1,306-306.1C612,137,475,0,306,0z
					 M306,580.2c-151.4,0-274.1-122.7-274.1-274.1C31.9,154.7,154.6,32,306,32s274.1,122.7,274.1,274.1S457.4,580.2,306,580.2z"/>
			</g>
			<g>
				<polygon class="st2" points="189.4,552.9 59.1,552.9 59.1,59.1 189.4,59.1 189.4,0 0,0 0,612 189.4,612 				"/>
				<polygon class="st2" points="422.8,0 422.8,59.1 552.9,59.1 552.9,552.9 422.8,552.9 422.8,612 612,612 612,0 				"/>
			</g>
		</g>
	</g>
	<g id="celeste_2_" class="st1">
		<g id="blanco_2_">
			<g>
				<g>
					<rect x="189.4" y="134.6" class="st4" width="49.2" height="42.6"/>
					<rect x="281.2" y="134.6" class="st4" width="49.6" height="42.6"/>
					<rect x="189.4" y="226.9" class="st4" width="49.2" height="42.6"/>
					<path class="st4" d="M373.4,318.7v88.8c0,11.9-9.6,21.5-21.5,21.5c-10.4,0-19.1-7.4-21.1-17.2v-93.1h-49.6v93.1
						c-2,9.8-10.7,17.2-21.1,17.2c-11.9,0-21.5-9.6-21.5-21.5v-88.8h-49.2v94.5c0,38.1,30.9,69,69,69h3.5c16.8,0,32.2-6,44.2-16
						c12,10,27.4,16,44.2,16h3.5c38.1,0,69-30.9,69-69v-94.5H373.4z"/>
					<rect x="281.2" y="226.9" class="st4" width="49.6" height="42.6"/>
					<rect x="373.4" y="134.6" class="st4" width="49.2" height="42.6"/>
					<rect x="373.4" y="226.9" class="st4" width="49.2" height="42.6"/>
				</g>
				<path class="st5" d="M306,0C136.9,0-0.1,137-0.1,306.1c0,169,137,306.1,306.1,306.1s306-137.1,306-306.1C612,137,475,0,306,0z
					 M306,580.2c-151.4,0-274.1-122.7-274.1-274.1C31.9,154.7,154.6,32,306,32s274.1,122.7,274.1,274.1S457.4,580.2,306,580.2z"/>
			</g>
			<g>
				<polygon class="st4" points="189.4,552.9 59.1,552.9 59.1,59.1 189.4,59.1 189.4,0 0,0 0,612 189.4,612 				"/>
				<polygon class="st4" points="422.8,0 422.8,59.1 552.9,59.1 552.9,552.9 422.8,552.9 422.8,612 612,612 612,0 				"/>
			</g>
		</g>
	</g>
	<g id="amarillo" class="st1">
		<rect class="st6" width="612" height="612"/>
		<g id="blanco_3_">
			<g>
				<g>
					<rect x="189.4" y="134.6" width="49.2" height="42.6"/>
					<rect x="281.2" y="134.6" width="49.6" height="42.6"/>
					<rect x="189.4" y="226.9" width="49.2" height="42.6"/>
					<path d="M373.4,318.7v88.8c0,11.9-9.6,21.5-21.5,21.5c-10.4,0-19.1-7.4-21.1-17.2v-93.1h-49.6v93.1c-2,9.8-10.7,17.2-21.1,17.2
						c-11.9,0-21.5-9.6-21.5-21.5v-88.8h-49.2v94.5c0,38.1,30.9,69,69,69h3.5c16.8,0,32.2-6,44.2-16c12,10,27.4,16,44.2,16h3.5
						c38.1,0,69-30.9,69-69v-94.5H373.4z"/>
					<rect x="281.2" y="226.9" width="49.6" height="42.6"/>
					<rect x="373.4" y="134.6" width="49.2" height="42.6"/>
					<rect x="373.4" y="226.9" width="49.2" height="42.6"/>
				</g>
				<path class="st0" d="M306,0C136.9,0-0.1,137-0.1,306.1c0,169,137,306.1,306.1,306.1s306-137.1,306-306.1C612,137,475,0,306,0z
					 M306,580.2c-151.4,0-274.1-122.7-274.1-274.1C31.9,154.7,154.6,32,306,32s274.1,122.7,274.1,274.1S457.4,580.2,306,580.2z"/>
			</g>
			<g>
				<polygon points="189.4,552.9 59.1,552.9 59.1,59.1 189.4,59.1 189.4,0 0,0 0,612 189.4,612 				"/>
				<polygon points="422.8,0 422.8,59.1 552.9,59.1 552.9,552.9 422.8,552.9 422.8,612 612,612 612,0 				"/>
			</g>
		</g>
	</g>
</g>
<g>
	<g>
		<rect x="189.4" y="134.6" class="st7" width="49.2" height="42.6"/>
		<rect x="281.2" y="134.6" class="st7" width="49.6" height="42.6"/>
		<rect x="189.4" y="226.9" class="st7" width="49.2" height="42.6"/>
		<path class="st7" d="M422.8,318.7h-49.4v88.8c0,11.9-9.6,21.5-21.5,21.5c-10.4,0-19.1-7.4-21.1-17.2v-93.1h-49.6v93.1
			c-2,9.8-10.7,17.2-21.1,17.2c-11.9,0-21.5-9.6-21.5-21.5v-88.8h-49.2v94.5c0,38.1,30.9,69,69,69h3.5c16.8,0,32.2-6,44.2-16
			c12,10,27.4,16,44.2,16h3.5c38.1,0,69-30.9,69-69V318.7z"/>
		<rect x="281.2" y="226.9" class="st7" width="49.6" height="42.6"/>
		<rect x="373.4" y="134.6" class="st7" width="49.2" height="42.6"/>
		<rect x="373.4" y="226.9" class="st7" width="49.2" height="42.6"/>
		<polygon class="st7" points="59.1,59.1 189.4,59.1 189.4,0 0,0 0,612 189.4,612 189.4,552.9 59.1,552.9 		"/>
		<polygon class="st7" points="422.8,0 422.8,59.1 552.9,59.1 552.9,552.9 422.8,552.9 422.8,612 612,612 612,0 		"/>
	</g>
</g>
</svg>
