<?xml version="1.0" encoding="utf-8"?>
<!-- Generator: Adobe Illustrator 23.0.1, SVG Export Plug-In . SVG Version: 6.00 Build 0)  -->
<svg version="1.1" id="Capa_1" focusable="false" xmlns="http://www.w3.org/2000/svg" xmlns:xlink="http://www.w3.org/1999/xlink"
	 x="0px" y="0px" viewBox="0 0 448 512" style="enable-background:new 0 0 448 512;" xml:space="preserve">
<style type="text/css">
	.st0{fill:#61DAFB;}
</style>
<g>
	<path class="st0" d="M430.6,257.4c0-27.2-34-52.9-86.2-68.9c12-53.2,6.7-95.5-16.9-109.1c-5.4-3.2-11.8-4.7-18.7-4.7v18.7
		c3.8,0,6.9,0.8,9.5,2.2c11.4,6.5,16.3,31.4,12.5,63.3c-0.9,7.9-2.4,16.1-4.3,24.6c-16.4-4-34.3-7.1-53.1-9.1
		c-11.3-15.5-23-29.5-34.8-41.8c27.3-25.3,52.9-39.2,70.3-39.2V74.6c-23,0-53.1,16.4-83.6,44.8c-30.4-28.3-60.6-44.5-83.6-44.5v18.7
		c17.3,0,43,13.8,70.3,39c-11.7,12.3-23.4,26.3-34.5,41.7c-18.9,2-36.8,5.1-53.2,9.2c-1.9-8.4-3.3-16.5-4.3-24.3
		c-3.9-32,0.9-56.8,12.2-63.4c2.5-1.5,5.8-2.2,9.6-2.2V75c-7,0-13.4,1.5-18.9,4.7C99.3,93.2,94,135.5,106.1,188.5
		c-52,16.1-85.9,41.7-85.9,68.8c0,27.2,34,52.9,86.2,68.9c-12,53.2-6.7,95.5,16.9,109.1c5.4,3.2,11.8,4.7,18.8,4.7
		c23,0,53.1-16.4,83.6-44.8c30.4,28.3,60.6,44.5,83.6,44.5c7,0,13.4-1.5,18.9-4.7c23.5-13.6,28.8-55.8,16.6-108.8
		C396.7,310.2,430.6,284.5,430.6,257.4L430.6,257.4z M321.7,201.6c-3.1,10.8-6.9,21.9-11.3,33c-3.4-6.7-7-13.4-11-20.1
		c-3.8-6.7-7.9-13.2-12-19.6C299.3,196.7,310.8,198.9,321.7,201.6L321.7,201.6z M283.4,290.7c-6.5,11.3-13.2,22-20.2,32
		c-12.5,1.1-25.1,1.7-37.8,1.7c-12.6,0-25.3-0.6-37.6-1.6c-6.9-10-13.7-20.6-20.2-31.8c-6.4-11-12.1-22.1-17.4-33.3
		c5.2-11.2,11-22.4,17.3-33.4c6.5-11.3,13.2-22,20.2-32c12.5-1.1,25.1-1.7,37.8-1.7c12.6,0,25.3,0.6,37.6,1.6
		c6.9,10,13.7,20.6,20.2,31.8c6.4,11,12.1,22.1,17.4,33.3C295.4,268.5,289.7,279.7,283.4,290.7L283.4,290.7z M310.4,279.8
		c4.5,11.2,8.4,22.4,11.5,33.3c-11,2.7-22.5,4.9-34.5,6.7c4.1-6.4,8.2-13,12-19.8C303.4,293.3,307,286.5,310.4,279.8L310.4,279.8z
		 M225.6,369c-7.8-8-15.6-17-23.3-26.8c7.5,0.3,15.2,0.6,23,0.6c7.9,0,15.6-0.2,23.3-0.6C241.1,352.1,233.3,361,225.6,369z
		 M163.4,319.8c-11.9-1.8-23.3-3.9-34.3-6.6c3.1-10.8,6.9-21.9,11.3-33c3.4,6.7,7,13.4,11,20.1C155.3,306.9,159.3,313.4,163.4,319.8
		z M225.2,145.7c7.8,8,15.6,17,23.3,26.8c-7.5-0.3-15.2-0.6-23-0.6c-7.9,0-15.6,0.2-23.3,0.6C209.7,162.7,217.5,153.7,225.2,145.7z
		 M163.3,195c-4.1,6.4-8.2,13-12,19.8c-3.8,6.7-7.4,13.4-10.9,20.1c-4.5-11.2-8.4-22.4-11.5-33.3C139.8,199,151.3,196.7,163.3,195
		L163.3,195z M87.6,299.7c-29.6-12.6-48.8-29.2-48.8-42.3c0-13.1,19.2-29.8,48.8-42.3c7.2-3.1,15.1-5.9,23.2-8.4
		c4.8,16.4,11,33.5,18.8,50.9c-7.7,17.4-13.9,34.4-18.6,50.7C102.7,305.6,94.9,302.8,87.6,299.7L87.6,299.7z M132.6,419.2
		c-11.4-6.5-16.3-31.4-12.5-63.3c0.9-7.9,2.4-16.1,4.3-24.6c16.4,4,34.3,7.1,53.1,9.1c11.3,15.5,23,29.5,34.8,41.8
		c-27.3,25.3-52.9,39.2-70.3,39.2C138.3,421.4,135.1,420.7,132.6,419.2L132.6,419.2z M331,355.5c3.9,32-0.9,56.8-12.2,63.4
		c-2.5,1.5-5.8,2.2-9.6,2.2c-17.3,0-43-13.8-70.3-39c11.7-12.3,23.4-26.3,34.5-41.7c18.9-2,36.8-5.1,53.2-9.2
		C328.6,339.6,330.1,347.7,331,355.5z M363.2,299.7c-7.2,3.1-15.1,5.9-23.2,8.4c-4.8-16.4-11-33.5-18.8-50.9
		c7.7-17.4,13.9-34.4,18.6-50.7c8.3,2.6,16.1,5.4,23.5,8.5c29.6,12.6,48.8,29.2,48.8,42.3C412,270.5,392.8,287.1,363.2,299.7
		L363.2,299.7z"/>
	<circle class="st0" cx="225.3" cy="257.4" r="38.2"/>
</g>
</svg>
