<?xml version="1.0" encoding="utf-8"?>
<!-- Generator: Adobe Illustrator 23.0.1, SVG Export Plug-In . SVG Version: 6.00 Build 0)  -->
<svg version="1.1" id="Capa_1" focusable="false" xmlns="http://www.w3.org/2000/svg" xmlns:xlink="http://www.w3.org/1999/xlink"
	 x="0px" y="0px" viewBox="0 0 448 512" style="enable-background:new 0 0 448 512;" xml:space="preserve">
<style type="text/css">
	.st0{fill:#FF3E00;}
	.st1{fill:#FFFFFF;}
</style>
<path class="st0" d="M387.2,93.6C345.8,34.4,264.1,16.8,205,54.5l-103.8,66.1c-7,4.4-13.5,9.5-19.4,15.2
	c-5.9,5.7-11.2,12.1-15.9,18.9c-4.6,6.8-8.5,14.1-11.6,21.8c-3.1,7.6-5.4,15.6-6.9,23.7c-1.2,6.8-1.9,13.7-2,20.6
	c-0.1,6.9,0.4,13.8,1.4,20.7c1,6.8,2.7,13.6,4.8,20.2c2.2,6.6,4.9,12.9,8.1,19.1c-2.2,3.4-4.2,6.8-6.1,10.4c-1.9,3.6-3.5,7.2-5,10.9
	c-1.5,3.7-2.8,7.5-3.9,11.4s-2,7.8-2.7,11.7c-3,16.6-2.6,33.7,1.2,50.2c1.9,8.2,4.5,16.2,8,23.9s7.6,15,12.6,21.9
	c41.4,59.2,123.1,76.7,182.2,39.1l103.8-65.8c7-4.4,13.5-9.5,19.4-15.2c5.9-5.7,11.2-12.1,15.9-18.9c4.6-6.8,8.5-14.1,11.6-21.8
	c3.1-7.6,5.4-15.6,6.9-23.7c1.2-6.8,1.9-13.7,2-20.6c0.1-6.9-0.4-13.8-1.4-20.7c-1-6.8-2.7-13.6-4.8-20.1
	c-2.2-6.6-4.9-12.9-8.1-19.1c2.2-3.4,4.3-6.8,6.1-10.4c1.9-3.6,3.5-7.2,5-10.9c1.5-3.7,2.8-7.5,3.9-11.4c1.1-3.9,2-7.8,2.8-11.7
	c1.5-8.3,2.1-16.7,1.9-25.1c-0.2-8.4-1.2-16.8-3.1-25c-1.9-8.2-4.5-16.2-8-23.9c-3.4-7.7-7.6-15-12.5-21.9"/>
<path class="st1" d="M194.9,426.7c-8.1,2.1-16.5,3-24.9,2.5c-8.4-0.4-16.6-2.1-24.5-5c-7.9-2.9-15.2-7-21.9-12.2
	c-6.6-5.1-12.4-11.3-17.2-18.2c-3-4.1-5.5-8.5-7.5-13.2c-2.1-4.6-3.7-9.4-4.8-14.4c-1.1-4.9-1.7-10-1.8-15
	c-0.1-5.1,0.3-10.1,1.2-15.1c0.1-0.8,0.3-1.6,0.5-2.4c0.2-0.8,0.4-1.6,0.6-2.4c0.2-0.8,0.4-1.6,0.7-2.4c0.2-0.8,0.5-1.6,0.7-2.4l2-6
	l5.3,4c3.1,2.2,6.2,4.3,9.4,6.3c3.2,2,6.5,3.8,9.9,5.5c3.4,1.7,6.8,3.2,10.4,4.6c3.5,1.4,7.1,2.6,10.7,3.7l4,1.2l-0.4,4
	c-0.2,2.7,0.1,5.4,0.8,8c0.4,1.3,0.8,2.6,1.4,3.8s1.3,2.4,2.1,3.5c1.4,2.1,3.2,3.9,5.2,5.5c2,1.5,4.2,2.8,6.6,3.7s4.9,1.4,7.4,1.5
	c2.5,0.1,5-0.1,7.5-0.8c0.6-0.1,1.1-0.3,1.7-0.5c0.6-0.2,1.1-0.4,1.6-0.6c0.5-0.2,1.1-0.5,1.6-0.8c0.5-0.3,1-0.6,1.5-0.9l103.6-66.1
	c1.3-0.8,2.5-1.7,3.5-2.8c1.1-1,2-2.2,2.9-3.4s1.5-2.6,2.1-4c0.6-1.4,1-2.8,1.2-4.3c0.3-1.5,0.4-3,0.3-4.6c0-1.5-0.2-3-0.6-4.5
	c-0.3-1.5-0.8-2.9-1.5-4.3c-0.6-1.4-1.4-2.7-2.3-4c-1.4-2.1-3.2-3.9-5.2-5.5s-4.2-2.8-6.6-3.7c-2.4-0.9-4.9-1.4-7.4-1.5
	c-2.5-0.1-5.1,0.1-7.5,0.8c-0.6,0.1-1.1,0.3-1.7,0.5c-0.6,0.2-1.1,0.4-1.6,0.6c-0.5,0.2-1.1,0.5-1.6,0.8c-0.5,0.3-1,0.6-1.5,0.9
	l-39.8,25.3c-1.6,1-3.3,2-5,2.9c-1.7,0.9-3.4,1.7-5.2,2.5c-1.8,0.8-3.6,1.5-5.4,2.1c-1.8,0.6-3.6,1.2-5.5,1.7
	c-8.1,2.1-16.5,2.9-24.9,2.5s-16.6-2.1-24.5-5c-7.9-2.9-15.2-7-21.8-12.1c-6.6-5.1-12.4-11.2-17.2-18.1c-2.9-4.1-5.5-8.5-7.5-13.2
	c-2.1-4.6-3.7-9.4-4.8-14.4c-1.1-4.9-1.7-10-1.8-15c-0.1-5.1,0.3-10.1,1.2-15.1c1.8-9.8,5.5-19.1,11.1-27.4
	c5.6-8.3,12.8-15.3,21.2-20.6l103.9-66.1c1.6-1,3.3-2,5-2.9c1.7-0.9,3.4-1.7,5.2-2.5c1.8-0.8,3.5-1.5,5.3-2.1
	c1.8-0.6,3.6-1.2,5.5-1.7c8.1-2.1,16.5-3,24.9-2.5c8.4,0.4,16.6,2.1,24.5,5c7.9,2.9,15.2,7,21.9,12.2c6.6,5.1,12.4,11.3,17.2,18.2
	c2.9,4.1,5.5,8.5,7.6,13.1c2.1,4.6,3.7,9.4,4.8,14.4c1.1,4.9,1.7,10,1.9,15c0.1,5.1-0.3,10.1-1.2,15.1c-0.2,0.8-0.3,1.6-0.5,2.4
	c-0.2,0.8-0.4,1.6-0.6,2.4c-0.2,0.8-0.4,1.6-0.7,2.4c-0.2,0.8-0.5,1.6-0.7,2.4l-2,6l-5.3-4c-3.1-2.3-6.2-4.4-9.5-6.3
	c-3.2-2-6.6-3.8-10-5.5c-6.8-3.4-13.9-6.2-21.1-8.4l-4-1.2l0.4-4c0.1-1.4,0.1-2.7,0-4.1c-0.1-1.4-0.4-2.7-0.7-4
	c-0.4-1.3-0.8-2.6-1.4-3.8c-0.6-1.2-1.3-2.4-2.1-3.5c-1.5-2-3.2-3.8-5.2-5.4c-2-1.5-4.2-2.7-6.6-3.6c-4.7-1.7-9.9-1.9-14.7-0.7
	c-0.6,0.1-1.1,0.3-1.7,0.5c-0.6,0.2-1.1,0.4-1.6,0.6c-0.5,0.2-1.1,0.5-1.6,0.8c-0.5,0.3-1,0.6-1.5,0.9l-103.8,66
	c-1.3,0.8-2.4,1.7-3.5,2.8s-2,2.2-2.9,3.4c-0.8,1.2-1.5,2.6-2.1,3.9c-0.6,1.4-1,2.8-1.2,4.3c-0.3,1.5-0.4,3-0.3,4.6
	c0.1,3.1,0.8,6.1,2,8.9c0.6,1.4,1.4,2.7,2.3,4c1.4,2.1,3.2,3.9,5.2,5.4c2,1.5,4.2,2.8,6.5,3.6c4.7,1.8,9.9,2,14.8,0.8
	c0.6-0.2,1.1-0.3,1.7-0.5c0.5-0.2,1.1-0.4,1.6-0.6c0.5-0.2,1.1-0.5,1.6-0.8c0.5-0.3,1-0.6,1.5-0.9l39.8-25.2c1.6-1,3.3-2,5-2.9
	c1.7-0.9,3.4-1.8,5.2-2.5c1.8-0.8,3.6-1.5,5.4-2.1c1.8-0.6,3.7-1.2,5.5-1.7c8.1-2.1,16.5-3,24.9-2.6c8.4,0.4,16.6,2.1,24.5,5
	c7.9,2.9,15.2,7,21.9,12.2c6.6,5.1,12.4,11.3,17.2,18.1c2.9,4.1,5.5,8.5,7.5,13.2c2.1,4.6,3.7,9.4,4.8,14.4c1.1,4.9,1.7,10,1.9,15
	c0.1,5.1-0.3,10.1-1.2,15.1c-0.9,4.9-2.3,9.7-4.1,14.3c-1.9,4.6-4.2,9-7,13.1c-2.8,4.1-6,7.9-9.5,11.4s-7.5,6.5-11.7,9.2
	l-103.8,66.1c-1.6,1-3.3,2-5,2.9c-1.7,0.9-3.4,1.7-5.2,2.5c-1.8,0.8-3.6,1.5-5.4,2.1C198.6,425.6,196.7,426.2,194.9,426.7"/>
</svg>
